Coordinates
version=1
nRows=6
nColumns=63
inDegrees=yes

Units are S.I. units (second, meters, Newtons, ...)
If the header above contains a line with 'inDegrees', this indicates whether rotational values are in degrees (yes) or radians (no).

endheader
time	pelvis_tilt	pelvis_list	pelvis_rotation	pelvis_tx	pelvis_ty	pelvis_tz	hip_flexion_r	hip_adduction_r	hip_rotation_r	knee_angle_r	knee_angle_r_beta	ankle_angle_r	subtalar_angle_r	mtp_angle_r	hip_flexion_l	hip_adduction_l	hip_rotation_l	knee_angle_l	knee_angle_l_beta	ankle_angle_l	subtalar_angle_l	mtp_angle_l	L5_S1_Flex_Ext	L5_S1_Lat_Bending	L5_S1_axial_rotation	L4_L5_Flex_Ext	L4_L5_Lat_Bending	L4_L5_axial_rotation	L3_L4_Flex_Ext	L3_L4_Lat_Bending	L3_L4_axial_rotation	L2_L3_Flex_Ext	L2_L3_Lat_Bending	L2_L3_axial_rotation	L1_L2_Flex_Ext	L1_L2_Lat_Bending	L1_L2_axial_rotation	L1_T12_Flex_Ext	L1_T12_Lat_Bending	L1_T12_axial_rotation	Abs_r3	Abs_r2	Abs_r1	Abs_t1	Abs_t2	neck_flexion	neck_bending	neck_rotation	arm_flex_r	arm_add_r	arm_rot_r	elbow_flex_r	pro_sup_r	wrist_flex_r	wrist_dev_r	arm_flex_l	arm_add_l	arm_rot_l	elbow_flex_l	pro_sup_l	wrist_flex_l	wrist_dev_l
      2.77966102	     20.35277356	    -16.86667692	     84.77524739	      0.25478421	      0.79180185	      0.84595144	     24.00440321	     17.39925698	     -5.33850160	     33.24785643	      0.58028456	     34.90079464	     16.25152169	      0.00000000	     25.33989603	    -18.22985739	      9.10087017	     40.08451982	      0.69960685	     48.83652068	    -17.36363654	      0.00000000	     -0.76368578	      4.26771175	     -3.25630604	     -1.41824085	      5.67605662	     -3.45982516	     -1.25465936	     10.37651434	     -3.45982516	     -0.87281647	     10.37651434	     -2.84926778	     -0.70915861	      8.70271780	     -2.64574865	     -0.43637005	      6.61068550	     -2.44222953	     -5.45493113	     48.27720883	    -18.11059728	      0.00000000	      0.00000000	     17.82260130	     -8.50109283	     32.94196388	    160.97758739	     24.98315220	    149.57443486	      0.07495154	      0.46344113	    -69.88022629	    -23.99580073	     10.14241531	      7.58269666	    102.37931602	      7.47338891	      1.86526389	     -2.23827421	     -8.35354932
      2.79661017	     19.76635824	    -16.95862256	     83.76506517	      0.25678503	      0.79433207	      0.84577988	     23.29172725	     17.52954934	     -3.44703961	     32.10439882	      0.56032746	     34.34316950	     15.54793621	      0.00000000	     24.57782381	    -18.27754775	      7.43318195	     39.18290842	      0.68387076	     48.32123176	    -17.52691934	      0.00000000	     -0.78266471	      4.18935804	     -3.15544418	     -1.45348664	      5.57184619	     -3.35265944	     -1.28583985	     10.18600513	     -3.35265944	     -0.89450750	     10.18600513	     -2.76101366	     -0.72678245	      8.54293891	     -2.56379840	     -0.44721462	      6.48931560	     -2.36658314	     -5.59049577	     47.39085598	    -17.54963391	      0.00000000	      0.00000000	     17.78457231	     -8.59164578	     31.94527890	    160.56028649	     24.99390000	    148.56824305	      0.07538134	      0.46953898	    -69.88042909	    -24.06120843	      9.50123065	      6.62957400	     91.88553722	     10.28466074	      2.74011257	     -2.23749819	     -7.66837182
      2.81355932	     18.91996065	    -16.90059107	     82.84759179	      0.25865318	      0.79720169	      0.84609105	     22.46059502	     17.20748121	     -1.99999176	     30.93572785	      0.53993031	     33.72309291	     15.30046892	      0.00000000	     23.68716308	    -18.02114925	      5.63460471	     38.20016683	      0.66671869	     47.55494400	    -17.75237511	      0.00000000	     -0.80878622	      4.07623271	     -3.10611320	     -1.50199689	      5.42138950	     -3.30024528	     -1.32875488	      9.91095221	     -3.30024528	     -0.92436177	      9.91095221	     -2.71784905	     -0.75103888	      8.31225374	     -2.52371698	     -0.46214045	      6.31408447	     -2.32958490	     -5.77707909	     46.11115965	    -17.27526981	      0.00000000	      0.00000000	     17.50988501	     -8.28980275	     31.70496646	    160.08579034	     25.02021537	    148.94995944	      0.07481687	      0.47166977	    -69.88118194	    -24.06781261	      9.45596666	      6.42942297	     92.78309778	     10.19873203	      3.00179933	     -1.92880976	     -7.68205354
      2.83050847	     17.91943412	    -16.99107615	     81.53579010	      0.26110013	      0.79997259	      0.84647910	     21.70597378	     16.88606186	     -0.09680258	     29.68309838	      0.51806780	     33.08730496	     14.94163382	      0.00000000	     22.81394653	    -17.81004101	      3.23402390	     37.20278808	      0.64931114	     46.82608643	    -17.82618358	      0.00000000	     -0.81962176	      3.94564492	     -3.00713543	     -1.52211958	      5.24770774	     -3.19508139	     -1.34655659	      9.59344105	     -3.19508139	     -0.93674571	      9.59344105	     -2.63124350	     -0.76110077	      8.04595911	     -2.44329754	     -0.46833188	      6.11180398	     -2.25535157	     -5.85447629	     44.63392443	    -16.72478511	      0.00000000	      0.00000000	     17.36972789	     -8.10488960	     31.66279311	    159.53098091	     25.14206073	    149.74273497	      0.07391977	      0.48181967	    -69.88154625	    -24.09748006	      9.74329547	      7.12797962	    104.82158778	      7.16061518	      1.88938013	     -0.69043780	     -8.35968522
      2.84745763	     16.95228736	    -17.05131642	     80.35064440	      0.26353223	      0.80246429	      0.84713389	     20.98516102	     16.50799082	      1.61951990	     28.40192408	      0.49570709	     32.56007014	     14.64507046	      0.00000000	     22.07106672	    -17.53661052	      1.04110240	     36.35215832	      0.63446485	     46.14789410	    -17.94007646	      0.00000000	     -0.83956582	      3.81148301	     -2.95381563	     -1.55915768	      5.06927240	     -3.13842911	     -1.37932268	      9.26723979	     -3.13842911	     -0.95953977	      9.26723979	     -2.58458868	     -0.77962082	      7.77237616	     -2.39997520	     -0.47972791	      5.90398718	     -2.21536172	     -5.99693468	     43.11625811	    -16.42823640	      0.00000000	      0.00000000	     17.45953658	     -7.87749209	     31.83138556	    159.05617939	     25.27556717	    150.82693299	      0.07270401	      0.49547258	    -69.88166412	    -24.12617125	      9.62272608	      7.82668221	    118.95632523	      3.65410846	      1.50938136	     -0.14668759	     -8.75286109
      2.86440678	     16.10744867	    -17.12585386	     79.37438925	      0.26558833	      0.80462002	      0.84809998	     20.34476622	     16.12480693	      2.99757057	     27.07764742	      0.47259410	     32.09243503	     14.43066204	      0.00000000	     21.59047028	    -17.25595449	     -0.73206551	     35.73094572	      0.62362265	     45.58770185	    -17.99632888	      0.00000000	     -0.85828539	      3.69191897	     -2.89895602	     -1.59392180	      4.91025223	     -3.08014077	     -1.41007707	      8.97653178	     -3.08014077	     -0.98093437	      8.97653178	     -2.53658652	     -0.79700382	      7.52856116	     -2.35540176	     -0.49042427	      5.71878248	     -2.17421701	     -6.13064673	     41.76372575	    -16.12312368	      0.00000000	      0.00000000	     17.78020990	     -7.62908474	     32.21716832	    158.75716671	     25.33625921	    152.26159277	      0.07139199	      0.50835248	    -69.88150514	    -24.13804581	      9.55073965	      8.03487716	    131.45166554	      1.55966549	      1.55304524	     -1.06724150	     -8.71445301
